<mxfile host="65bd71144e">
    <diagram id="qoR73MLrPvg1tw0eJBDl" name="第 1 页">
        <mxGraphModel dx="1371" dy="934" grid="1" gridSize="10" guides="1" tooltips="1" connect="1" arrows="1" fold="1" page="1" pageScale="1" pageWidth="827" pageHeight="1169" math="0" shadow="0">
            <root>
                <mxCell id="0"/>
                <mxCell id="1" parent="0"/>
                <mxCell id="2" value="" style="rounded=0;whiteSpace=wrap;html=1;dashed=1;" parent="1" vertex="1">
                    <mxGeometry x="80" y="120" width="520" height="360" as="geometry"/>
                </mxCell>
                <mxCell id="3" value="container" style="rounded=0;whiteSpace=wrap;html=1;dashed=1;" parent="1" vertex="1">
                    <mxGeometry x="80" y="120" width="80" height="30" as="geometry"/>
                </mxCell>
                <mxCell id="4" value="header" style="rounded=0;whiteSpace=wrap;html=1;dashed=1;" parent="1" vertex="1">
                    <mxGeometry x="100" y="170" width="480" height="40" as="geometry"/>
                </mxCell>
                <mxCell id="5" value="" style="rounded=0;whiteSpace=wrap;html=1;dashed=1;" parent="1" vertex="1">
                    <mxGeometry x="100" y="230" width="480" height="230" as="geometry"/>
                </mxCell>
                <mxCell id="6" value="container (aside)" style="rounded=0;whiteSpace=wrap;html=1;dashed=1;" parent="1" vertex="1">
                    <mxGeometry x="100" y="230" width="120" height="30" as="geometry"/>
                </mxCell>
                <mxCell id="7" value="aside" style="rounded=0;whiteSpace=wrap;html=1;dashed=1;" vertex="1" parent="1">
                    <mxGeometry x="120" y="280" width="80" height="160" as="geometry"/>
                </mxCell>
                <mxCell id="8" value="" style="rounded=0;whiteSpace=wrap;html=1;dashed=1;" vertex="1" parent="1">
                    <mxGeometry x="220" y="280" width="340" height="160" as="geometry"/>
                </mxCell>
                <mxCell id="10" value="container" style="rounded=0;whiteSpace=wrap;html=1;dashed=1;" vertex="1" parent="1">
                    <mxGeometry x="220" y="280" width="80" height="30" as="geometry"/>
                </mxCell>
                <mxCell id="11" value="main" style="rounded=0;whiteSpace=wrap;html=1;dashed=1;" vertex="1" parent="1">
                    <mxGeometry x="240" y="330" width="300" height="40" as="geometry"/>
                </mxCell>
                <mxCell id="12" value="footer" style="rounded=0;whiteSpace=wrap;html=1;dashed=1;" vertex="1" parent="1">
                    <mxGeometry x="240" y="390" width="300" height="30" as="geometry"/>
                </mxCell>
            </root>
        </mxGraphModel>
    </diagram>
</mxfile>
